<svg xmlns="http://www.w3.org/2000/svg" viewBox="0 0 860 520" font-family="'Segoe UI',system-ui,-apple-system,sans-serif">
  <defs>
    <linearGradient id="bgGrad" x1="0" y1="0" x2="0" y2="1">
      <stop offset="0%" stop-color="#0f172a"/>
      <stop offset="100%" stop-color="#1a1333"/>
    </linearGradient>
    <linearGradient id="purpleGrad" x1="0" y1="0" x2="1" y2="1">
      <stop offset="0%" stop-color="#7c3aed"/>
      <stop offset="100%" stop-color="#4f46e5"/>
    </linearGradient>
    <linearGradient id="titleGrad" x1="0" y1="0" x2="1" y2="0">
      <stop offset="0%" stop-color="#c084fc"/>
      <stop offset="100%" stop-color="#60a5fa"/>
    </linearGradient>
    <filter id="glow">
      <feGaussianBlur stdDeviation="2" result="blur"/>
      <feMerge><feMergeNode in="blur"/><feMergeNode in="SourceGraphic"/></feMerge>
    </filter>
    <marker id="arrowPurple" viewBox="0 0 10 10" refX="9" refY="5" markerWidth="6" markerHeight="6" orient="auto">
      <path d="M0,0 L10,5 L0,10 z" fill="#a78bfa"/>
    </marker>
    <marker id="arrowGold" viewBox="0 0 10 10" refX="9" refY="5" markerWidth="6" markerHeight="6" orient="auto">
      <path d="M0,0 L10,5 L0,10 z" fill="#fbbf24"/>
    </marker>
    <marker id="arrowOrange" viewBox="0 0 10 10" refX="9" refY="5" markerWidth="6" markerHeight="6" orient="auto">
      <path d="M0,0 L10,5 L0,10 z" fill="#fb923c"/>
    </marker>
    <marker id="arrowGreen" viewBox="0 0 10 10" refX="9" refY="5" markerWidth="6" markerHeight="6" orient="auto">
      <path d="M0,0 L10,5 L0,10 z" fill="#4ade80"/>
    </marker>
  </defs>

  <!-- Background -->
  <rect width="860" height="520" rx="16" fill="url(#bgGrad)"/>

  <!-- ═══════════════════════════════════════════════════════ -->
  <!-- LOGO SECTION: Official HuggingFace + OpenClaw logos    -->
  <!-- ═══════════════════════════════════════════════════════ -->

  <!-- Official HuggingFace Logo (scaled from viewBox 25.47 32.15 205.96 191.2) -->
  <g transform="translate(305,8) scale(0.3)">
    <svg xmlns="http://www.w3.org/2000/svg" fill="none" viewBox="25.47 32.15 205.96 191.2"><path fill="#fff" d="M230.721 172.7a19 19 0 0 0-2.575-5.692q.376-1.377.568-2.791c.829-5.976-1.243-11.447-5.147-15.68-2.115-2.312-4.382-3.839-6.783-4.776a90.6 90.6 0 0 0 2.377-20.568c0-3.163-.179-6.261-.479-9.313a106 106 0 0 0-.567-4.56 91 91 0 0 0-3.051-13.21 91 91 0 0 0-3.054-8.374 92 92 0 0 0-6.041-11.754 81 81 0 0 0-4.907-7.262 69 69 0 0 0-2.704-3.446 90.5 90.5 0 0 0-9.033-9.486 70 70 0 0 0-3.315-2.862 82 82 0 0 0-3.424-2.704 96 96 0 0 0-7.262-4.907c-13.781-8.37-29.942-13.17-47.215-13.17-50.292 0-91.052 40.762-91.052 91.051-.002 7.012.81 14 2.42 20.824-2.16.938-4.23 2.4-6.15 4.515-3.903 4.231-5.976 9.682-5.147 15.658q.189 1.425.567 2.813a19 19 0 0 0-2.573 5.694c-1.2 4.561-.805 8.674.72 12.278-1.658 4.71-1.244 9.726.915 14.087 1.57 3.185 3.817 5.649 6.587 7.851 3.293 2.618 7.415 4.842 12.387 6.976 5.932 2.53 13.173 4.907 16.466 5.779 8.506 2.202 16.662 3.598 24.928 3.666 11.777.109 21.919-2.66 29.18-9.747a88 88 0 0 0 10.752.654 94 94 0 0 0 11.358-.715c7.244 7.132 17.425 9.926 29.245 9.814 8.265-.066 16.421-1.462 24.905-3.667 3.315-.872 10.553-3.249 16.488-5.779 4.972-2.137 9.094-4.361 12.409-6.975 2.749-2.203 4.994-4.666 6.565-7.851 2.181-4.362 2.573-9.378.938-14.088 1.51-3.604 1.903-7.726.704-12.283m-8.44 11.973c1.671 3.171 1.778 6.754.304 10.091-2.236 5.057-7.79 9.041-18.577 13.318-6.708 2.66-12.85 4.361-12.904 4.376-8.872 2.301-16.896 3.47-23.842 3.47-11.502 0-20.061-3.174-25.489-9.442a85.5 85.5 0 0 1-27.747.158c-5.435 6.164-13.945 9.284-25.35 9.284-6.947 0-14.97-1.169-23.843-3.47-.054-.015-6.194-1.716-12.904-4.376-10.786-4.277-16.342-8.258-18.577-13.318-1.474-3.337-1.367-6.92.304-10.091q.231-.443.497-.86a12.8 12.8 0 0 1-1.728-10.341c.664-2.523 2.035-4.621 3.897-6.128a12.75 12.75 0 0 1-1.73-4.822c-.536-3.714.697-7.422 3.47-10.446 2.16-2.353 5.213-3.648 8.593-3.648h.09a84.5 84.5 0 0 1-3.832-25.235c0-46.671 37.836-84.51 84.514-84.51s84.513 37.835 84.513 84.51a84.4 84.4 0 0 1-3.859 25.299q.612-.06 1.201-.061c3.38 0 6.434 1.295 8.592 3.648 2.773 3.021 4.007 6.732 3.47 10.446a12.8 12.8 0 0 1-1.729 4.822c1.862 1.507 3.234 3.605 3.897 6.128a12.8 12.8 0 0 1-1.728 10.341q.267.413.497.857"/><path fill="#FF9D00" d="M221.784 183.816a12.8 12.8 0 0 0 1.728-10.341c-.664-2.523-2.036-4.621-3.897-6.128a12.7 12.7 0 0 0 1.729-4.822c.537-3.714-.696-7.422-3.47-10.446-2.158-2.353-5.212-3.648-8.592-3.648q-.59 0-1.201.061a84.4 84.4 0 0 0 3.852-25.297c0-46.672-37.836-84.51-84.509-84.51S42.91 76.52 42.91 123.195a84.5 84.5 0 0 0 3.832 25.235h-.09c-3.38 0-6.433 1.294-8.592 3.647-2.773 3.021-4.007 6.733-3.47 10.446a12.8 12.8 0 0 0 1.73 4.823c-1.862 1.506-3.234 3.604-3.898 6.127a12.8 12.8 0 0 0 1.73 10.343q-.266.417-.497.86c-1.67 3.171-1.778 6.754-.303 10.091 2.236 5.057 7.79 9.041 18.577 13.318 6.707 2.66 12.85 4.361 12.904 4.376 8.872 2.301 16.896 3.47 23.842 3.47 11.406 0 19.916-3.12 25.351-9.284a85.5 85.5 0 0 0 27.747-.158c5.428 6.268 13.987 9.442 25.489 9.442 6.946 0 14.97-1.169 23.841-3.47.055-.015 6.195-1.716 12.905-4.376 10.787-4.277 16.342-8.261 18.577-13.318 1.474-3.337 1.367-6.92-.304-10.091q-.23-.447-.497-.86m-111.647 13.181a35 35 0 0 1-1.502 2.394c-1.405 2.057-3.253 3.629-5.398 4.797-4.1 2.236-9.29 3.017-14.562 3.017-8.329 0-16.867-1.949-21.652-3.19-.236-.061-29.334-8.28-25.65-15.276.62-1.177 1.64-1.647 2.925-1.647 5.187 0 14.632 7.724 18.69 7.724.908 0 1.548-.386 1.809-1.328 1.73-6.204-26.293-8.812-23.933-17.796.416-1.59 1.546-2.236 3.134-2.236 6.858-.001 22.25 12.06 25.469 12.06.247 0 .424-.073.52-.225l.041-.069c1.511-2.495.644-4.309-9.707-10.649l-.994-.605c-11.391-6.894-19.386-11.043-14.84-15.993.524-.571 1.266-.824 2.167-.824 1.068 0 2.36.357 3.785.957 6.016 2.537 14.354 9.456 17.837 12.473a146 146 0 0 1 1.633 1.441s4.41 4.586 7.076 4.586c.614 0 1.135-.242 1.488-.84 1.891-3.188-17.563-17.93-18.66-24.013-.744-4.121.522-6.209 2.862-6.209 1.113 0 2.47.474 3.97 1.425 4.65 2.951 13.628 18.379 16.915 24.381 1.102 2.011 2.983 2.861 4.678 2.861 3.363 0 5.992-3.343.308-7.591-8.543-6.392-5.545-16.84-1.468-17.483q.262-.042.525-.042c3.708 0 5.343 6.389 5.343 6.389s4.794 12.038 13.029 20.267c7.472 7.469 8.516 13.598 4.162 21.244m26.629 1.41-.427.051-.728.083q-.575.06-1.152.113l-.375.034-.343.029-.486.039-.537.039-.536.035-.119.008q-.21.013-.422.024l-.179.01q-.248.013-.5.024l-.581.025-.527.018-.352.01h-.179c-.11 0-.219.006-.329.007h-.174q-.165-.001-.329.005l-.448.006h-.625q-.737 0-1.469-.015l-.396-.009q-.17-.001-.337-.009l-.42-.012-.521-.02-.47-.021-.121-.005-.447-.023q-.187-.01-.372-.022l-.289-.017a80 80 0 0 1-1.089-.076l-.38-.031q-.24-.019-.479-.041-.28-.024-.561-.052a60 60 0 0 1-.939-.095h-.015c4.57-10.195 2.259-19.717-6.976-28.944-6.057-6.049-10.086-14.981-10.922-16.942-1.692-5.805-6.17-12.258-13.607-12.258q-.945 0-1.878.148c-3.258.513-6.106 2.388-8.138 5.21-2.196-2.731-4.33-4.902-6.26-6.128-2.91-1.845-5.814-2.781-8.643-2.781-3.531 0-6.687 1.45-8.887 4.08l-.056.067-.123-.52-.005-.023a74 74 0 0 1-1.054-5.412q.002-.018-.006-.036l-.063-.412q-.093-.61-.173-1.22l-.073-.555-.068-.555c-.022-.185-.04-.353-.06-.529l-.006-.044q-.12-1.08-.21-2.162l-.022-.277-.035-.472q-.016-.194-.027-.389c0-.031-.005-.061-.006-.09a53 53 0 0 1-.065-1.088q-.016-.283-.028-.567l-.02-.496-.005-.15-.016-.457-.01-.389c0-.155-.008-.31-.01-.465-.003-.155-.007-.325-.008-.489-.002-.164 0-.326-.005-.489-.004-.164 0-.327 0-.49 0-41.853 33.93-75.784 75.788-75.784 41.856 0 75.786 33.93 75.786 75.784v.979q-.002.245-.008.489c0 .135-.006.268-.01.405q-.002.182-.009.357c0 .153-.009.306-.014.459v.012l-.021.531-.021.466-.005.11-.027.496a81 81 0 0 1-.241 3.184v.013q-.025.261-.053.522l-.045.411-.089.804-.051.407-.063.479q-.034.262-.072.522-.04.292-.084.583l-.069.459-.082.52q-.042.26-.09.517c-.033.173-.059.345-.089.517q-.09.516-.189 1.031-.151.77-.31 1.537l-.11.507q-.055.254-.113.508c-2.133-2.073-4.958-3.202-8.073-3.202-2.827 0-5.734.935-8.643 2.78-1.93 1.226-4.063 3.398-6.26 6.128-2.035-2.822-4.883-4.697-8.139-5.21a12 12 0 0 0-1.878-.148c-7.439 0-11.914 6.453-13.607 12.258-.84 1.961-4.87 10.893-10.932 16.951-9.229 9.198-11.557 18.677-7.059 28.83m78.241-20.409-.03.089a5 5 0 0 1-.263.587q-.112.21-.244.408-.25.374-.549.711c-.046.052-.09.104-.142.155a8 8 0 0 1-.22.227c-1.346 1.334-3.398 2.504-5.718 3.577l-.799.358-.268.119c-.179.079-.358.157-.546.234q-.27.118-.551.232l-.558.23c-1.305.537-2.642 1.049-3.946 1.554l-.558.217-.551.216q-.55.214-1.085.429l-.531.214-.522.213-.256.108-.505.213c-3.837 1.647-6.598 3.322-6.018 5.4q.024.088.054.17.078.23.212.436.078.122.179.228c.682.709 1.923.597 3.488.034q.33-.121.656-.253l.136-.056c.358-.152.737-.322 1.124-.506.097-.046.195-.09.293-.141 1.914-.936 4.083-2.196 6.235-3.343a56 56 0 0 1 2.618-1.325c2.038-.959 3.954-1.639 5.494-1.639.723 0 1.361.148 1.893.488l.089.059c.334.235.614.537.823.887q.061.101.12.211c.761 1.445.124 2.941-1.367 4.408-1.431 1.409-3.657 2.79-6.187 4.068q-.281.143-.567.283c-7.53 3.698-17.391 6.483-17.528 6.518-2.628.681-6.386 1.575-10.62 2.244l-.626.098-.103.015q-.711.108-1.425.201-.725.097-1.462.179l-.09.01a69 69 0 0 1-5.358.406h-.026q-.971.035-1.943.035h-.747a46 46 0 0 1-2.959-.134q-.035.002-.071-.006-.53-.04-1.057-.099a40 40 0 0 1-1.092-.132 25 25 0 0 1-.715-.107 58 58 0 0 1-.725-.121l-.329-.062-.025-.005a26 26 0 0 1-1.036-.219c-.2-.045-.399-.089-.596-.143l-.119-.03q-.146-.037-.29-.076l-.053-.014-.308-.09-.336-.098-.039-.011-.291-.089q-.165-.052-.329-.106l-.268-.089-.197-.069q-.285-.1-.566-.208l-.178-.07-.147-.058a23 23 0 0 1-.845-.358l-.185-.09-.031-.014q-.099-.048-.197-.089a17 17 0 0 1-.384-.191l-.039-.019-.184-.097a16 16 0 0 1-.961-.546l-.172-.106a9 9 0 0 1-.256-.164l-.224-.148-.241-.166-.144-.103q-.228-.162-.447-.335l-.233-.179a15 15 0 0 1-.276-.228q-.115-.095-.227-.195l-.006-.005q-.121-.106-.239-.215a12 12 0 0 1-.232-.216l-.009-.009a9 9 0 0 1-.235-.232q-.117-.117-.231-.236t-.226-.243c-.074-.082-.142-.157-.212-.238l-.023-.027a9 9 0 0 1-.201-.238 12 12 0 0 1-.416-.525q-.203-.27-.396-.551l-.123-.184q-.246-.36-.479-.728a19 19 0 0 1-.339-.536q-.106-.17-.207-.339l-.028-.046q-.098-.164-.191-.327a3 3 0 0 1-.102-.179c-.033-.062-.071-.125-.106-.188l-.057-.099-.035-.064q-.1-.18-.197-.363-.044-.082-.09-.16l-.089-.173-.09-.171q-.338-.675-.638-1.368l-.071-.169q-.067-.17-.135-.336-.034-.08-.063-.161a17 17 0 0 1-.776-2.639q-.017-.083-.031-.163a12 12 0 0 1-.127-.806q-.012-.08-.02-.159l-.017-.162a11 11 0 0 1-.049-.638q-.002-.082-.007-.16a8 8 0 0 1-.008-.318c-.056-4.273 2.106-8.381 6.729-13.002 8.235-8.227 13.029-20.266 13.029-20.266s.129-.505.397-1.232q.055-.151.12-.314.234-.611.527-1.197l.039-.075q.25-.498.544-.971c.046-.073.09-.145.141-.218q.22-.326.465-.634c.089-.111.186-.221.283-.328q.057-.064.118-.124c.477-.493 1.022-.895 1.639-1.109l.078-.026q.078-.025.157-.048.091-.024.185-.043l.029-.006q.195-.039.395-.052h.011c.069 0 .139-.007.21-.007.089 0 .172 0 .259.009q.135.012.269.032c.742.118 1.448.56 2.056 1.242q.347.391.621.836.18.288.34.609c.043.089.084.171.124.259a8 8 0 0 1 .28.691q.293.827.439 1.692.126.758.15 1.526.012.41 0 .829a12 12 0 0 1-.787 3.792q-.065.167-.134.335a9 9 0 0 1-.302.665q-.12.248-.258.496-.09.165-.186.33-.242.41-.522.817l-.113.162a13.6 13.6 0 0 1-1.472 1.728 15.4 15.4 0 0 1-1.699 1.47q-.905.67-1.689 1.477c-1.503 1.577-1.853 2.969-1.515 4.024q.081.25.211.479.152.261.357.48l.053.055.054.054q.08.078.172.153l.06.048q.218.168.46.3c.047.025.089.05.142.074q.261.128.537.217.076.025.154.048l.065.017.09.024.077.019.084.018.083.017.079.013q.087.016.178.027l.057.009.104.01.064.007.105.007h.062l.11.006h.346l.099-.006.114-.007.139-.013.13-.015c.03 0 .06-.008.09-.014.4-.058.792-.164 1.167-.316l.159-.067a5 5 0 0 0 .772-.421q.344-.225.647-.503.072-.066.141-.133.034-.032.067-.067.067-.066.133-.138.482-.53.825-1.157a229 229 0 0 1 6.151-10.514l.294-.471.297-.471q.223-.358.447-.708l.15-.234q.747-1.17 1.519-2.324l.305-.456c.612-.907 1.222-1.789 1.827-2.627l.301-.415a56 56 0 0 1 2.054-2.661l.282-.338c.047-.056.09-.112.141-.166q.14-.165.277-.321c.046-.053.089-.105.138-.157l.268-.302.134-.147q.202-.217.397-.417c.09-.09.173-.179.259-.263a10.5 10.5 0 0 1 1.669-1.386l.14-.09q.201-.136.415-.25c2.364-1.342 4.321-1.441 5.448-.314.682.682 1.06 1.813 1.039 3.387q.001.103-.005.211v.077q-.002.108-.012.217c0 .09-.01.179-.019.269-.009.089-.014.157-.023.237q-.001.033-.008.069-.01.104-.025.211.002.032-.008.065a5 5 0 0 1-.041.283c-.011.09-.026.174-.042.262l-.026.149a4 4 0 0 1-.1.42 6 6 0 0 1-.283.758 11 11 0 0 1-.514.987q-.156.267-.322.526-.172.269-.358.543-.474.678-.985 1.328l-.156.197a51 51 0 0 1-1.722 2.035l-.187.21q-.378.422-.77.848l-.197.214c-.131.143-.268.286-.4.43q-.198.215-.406.433l-.411.433-.417.436-.42.436q-.423.438-.85.876c-4.055 4.159-8.327 8.304-9.773 10.888a5 5 0 0 0-.262.519c-.206.47-.292.872-.233 1.197a.9.9 0 0 0 .111.303q.122.212.295.387.08.078.168.144c.298.212.657.321 1.023.311h.114l.117-.009.117-.013.097-.014q.02-.002.04-.008l.089-.017.023-.005.099-.021.035-.009.104-.028c.035-.01.083-.023.125-.037q.264-.08.517-.188.133-.054.262-.117.068-.03.132-.063l.134-.066q.48-.25.936-.541l.133-.09q.068-.041.133-.089l.133-.089.071-.049.192-.135c.179-.123.346-.25.515-.379l.015-.012.269-.208c.367-.29.715-.582 1.031-.857l.21-.184.019-.018.11-.097c.258-.232.488-.448.679-.626l.079-.077q.103-.099.189-.178l.112-.111.04-.039.011-.011.117-.117.074-.077.009-.007.035-.032.044-.04.014-.013.037-.034.204-.179.114-.102q.091-.08.179-.162l.136-.121q.037-.03.074-.064l.143-.125.21-.185.112-.097c.435-.378.964-.835 1.572-1.35l.249-.211.411-.345.421-.351c.55-.457 1.142-.942 1.768-1.445l.411-.33q.526-.42 1.073-.849.22-.173.448-.344.558-.434 1.123-.859c.858-.648 1.743-1.297 2.639-1.929l.384-.268q.403-.279.805-.552l.243-.164q.72-.488 1.455-.951l.243-.153.241-.15q.363-.225.721-.44l.239-.143.478-.278.469-.269.095-.052.371-.204q.232-.126.463-.244l.229-.118.223-.112.231-.113a22 22 0 0 1 1.954-.845l.41-.144q.185-.062.358-.115l.04-.012q.093-.03.185-.054l.018-.005q.192-.055.38-.099h.009a8 8 0 0 1 1.077-.183q.25-.026.502-.025h.084q.167 0 .327.018c.049 0 .098.01.146.016h.02q.072.008.144.024.071.013.141.028h.015c.047.01.089.022.138.036.254.071.496.181.718.325q.164.107.305.24l.027.026.051.05.049.053c.402.421.734.904.984 1.43l.038.09q.128.3.2.618c.142.646.087 1.32-.158 1.935a4.7 4.7 0 0 1-.339.715 8 8 0 0 1-1.099 1.452l-.089.095q-.199.21-.416.42-.097.094-.198.188l-.205.189-.107.095q-.388.345-.792.669-.244.198-.493.388-.879.672-1.791 1.297a60 60 0 0 1-1.11.743 100 100 0 0 1-2.786 1.763c-1.968 1.21-4.149 2.504-6.474 3.911l-.602.365q-.988.603-1.867 1.152l-.295.185-.558.358q-.555.356-1.108.715l-.297.196q-.217.142-.433.286l-.141.09-.432.291-.229.157-.268.186-.249.173q-.626.442-1.162.843l-.134.102q-.315.239-.623.486-.464.373-.844.716l-.124.113q-.107.098-.208.194-.067.068-.137.133l-.064.064q-.215.216-.418.442l-.066.076q-.22.254-.387.492l-.05.071q-.132.192-.242.396-.028.051-.053.102l-.049.102-.033.074-.021.05-.017.045-.023.061a2.6 2.6 0 0 0-.13.523l-.008.062-.006.058v.315q-.002.038.007.08l.005.048c0 .026.006.051.01.079.004.026.011.073.019.11v.005q.01.052.023.104c.009.035.018.075.029.111q.03.106.068.211.023.063.048.124.002.012.01.025l.036.081.05.111q.081.172.177.336l.066.114.068.114a.4.4 0 0 0 .041.054l.022.023.025.023.026.02a.5.5 0 0 0 .122.063q.035.012.071.02c.577.13 1.763-.347 3.339-1.179.089-.048.187-.098.282-.15l.48-.262.234-.13c.167-.089.337-.19.511-.289l.317-.179c2.083-1.199 4.571-2.739 7.143-4.243q.362-.212.725-.421l.486-.311q.846-.485 1.7-.957a80 80 0 0 1 2.168-1.15l.476-.241q.474-.234.938-.456a41 41 0 0 1 1.815-.809l.335-.136.04-.016c1.775-.703 3.384-1.137 4.686-1.137q.423-.004.84.069h.009c.089.016.17.034.253.054h.015q.32.081.616.23c.275.142.522.331.731.559q.144.16.256.343.21.324.329.692c.032.095.06.188.089.287a3.93 3.93 0 0 1-.06 2.305"/><path fill="#FFD21E" fill-rule="evenodd" d="M203.21 123.685v-.491c0-41.854-33.918-75.783-75.775-75.783-41.856 0-75.787 33.931-75.787 75.783v.164a7 7 0 0 0 0 .327q.008.244.005.489l.005.36.003.129q0 .09.004.179.005.143.005.286l.011.389.016.457.005.15.02.473v.023l.027.553.001.014q.014.282.032.566.014.261.033.522l.002.031.03.448.003.04.033.432.003.028q.008.127.02.249.09 1.082.21 2.161l.004.045.061.529.068.555.05.377.023.177q.08.612.173 1.221l.004.027.059.384q.429 2.745 1.06 5.45l.005.022.032.135.091.385.056-.067c2.2-2.63 5.356-4.08 8.887-4.08 2.83 0 5.733.936 8.643 2.781 1.93 1.226 4.064 3.397 6.26 6.128 2.032-2.822 4.88-4.698 8.138-5.21.621-.098 1.25-.147 1.878-.148 7.436 0 11.915 6.453 13.607 12.258.836 1.961 4.865 10.893 10.941 16.935 9.236 9.227 11.547 18.748 6.976 28.943h.016q.466.053.939.096.28.028.561.052l.066.006.413.035.38.03q.543.042 1.089.077l.289.017.229.014.142.008.447.023.122.005.469.021.522.02.419.012.07.002q.133.006.267.007l.096.003q.885.021 1.769.02h.626l.447-.005q.164-.006.33-.005h.174l.151-.004q.088-.004.178-.004h.179l.351-.009.528-.018.581-.026q.252-.01.5-.023l.179-.011.266-.014.156-.009.118-.008.537-.035.536-.039.487-.039.342-.029.376-.034a62 62 0 0 0 1.88-.197l.427-.051c-4.499-10.152-2.17-19.632 7.027-28.822 6.063-6.058 10.092-14.99 10.932-16.952 1.693-5.804 6.169-12.257 13.607-12.257.629 0 1.258.05 1.879.148 3.255.512 6.103 2.388 8.138 5.21 2.197-2.73 4.33-4.903 6.261-6.129 2.909-1.844 5.815-2.78 8.642-2.78 3.116 0 5.94 1.13 8.073 3.203q.058-.253.114-.508l.109-.506q.059-.278.115-.555.1-.49.195-.984.099-.513.189-1.03l.031-.186.058-.331q.05-.258.09-.518l.011-.066.071-.453.07-.459v-.004q.076-.508.144-1.017l.011-.084.063-.478.051-.408.09-.804.035-.323.009-.088q.029-.261.053-.522v-.014l.039-.416q.107-1.182.179-2.375.013-.195.024-.392v-.006l.026-.491.006-.11q.024-.498.041-.996v-.012l.005-.13q.008-.164.009-.329l.002-.044q.007-.156.008-.314l.003-.09q.005-.157.006-.314l.002-.089q.005-.2.006-.4zm-94.572 75.706c6.002-8.801 5.576-15.407-2.658-23.637-8.236-8.231-13.029-20.267-13.029-20.267s-1.789-6.991-5.869-6.349-7.073 11.089 1.47 17.484c8.542 6.395-1.7 10.731-4.988 4.73-3.288-6.002-12.265-21.429-16.919-24.38s-7.927-1.297-6.83 4.785c.545 3.019 5.613 8.172 10.348 12.986 4.804 4.884 9.265 9.42 8.311 11.025-1.893 3.187-8.56-3.745-8.56-3.745s-20.876-18.998-25.42-14.047c-4.19 4.563 2.271 8.442 12.227 14.421q1.27.762 2.611 1.572c11.391 6.896 12.277 8.715 10.66 11.324-.597.964-4.41-1.325-9.1-4.14-7.995-4.801-18.537-11.13-20.026-5.465-1.288 4.903 6.468 7.907 13.502 10.632 5.86 2.27 11.22 4.346 10.431 7.164-.817 2.922-5.246.485-10.087-2.179-5.435-2.991-11.39-6.267-13.339-2.57-3.683 6.99 25.41 15.219 25.65 15.28 9.4 2.438 33.272 7.604 41.615-4.624m38.665 0c-6.002-8.801-5.576-15.407 2.659-23.637s13.028-20.267 13.028-20.267 1.789-6.991 5.869-6.349 7.073 11.089-1.469 17.484 1.699 10.731 4.987 4.73c3.289-6.002 12.26-21.429 16.914-24.38s7.929-1.297 6.831 4.785c-.544 3.019-5.613 8.172-10.348 12.987-4.804 4.884-9.265 9.419-8.312 11.024 1.893 3.187 8.565-3.749 8.565-3.749s20.875-18.997 25.421-14.046c4.189 4.562-2.272 8.442-12.229 14.421q-1.306.784-2.61 1.572c-11.391 6.896-12.277 8.715-10.661 11.323.598.965 4.411-1.325 9.1-4.14 7.996-4.8 18.538-11.13 20.027-5.464 1.289 4.903-6.468 7.907-13.502 10.632-5.86 2.27-11.22 4.346-10.432 7.164.816 2.921 5.244.484 10.084-2.18 5.435-2.991 11.391-6.269 13.339-2.569 3.684 6.994-25.414 15.215-25.649 15.275-9.4 2.446-33.272 7.612-41.612-4.616" clip-rule="evenodd"/><path fill="#32343D" fill-rule="evenodd" d="M152.047 102.567c1.182.418 2.061 1.69 2.897 2.901 1.13 1.636 2.182 3.159 3.796 2.301a10.91 10.91 0 0 0 4.247-15.214 10.91 10.91 0 0 0-7.742-5.198 10.904 10.904 0 0 0-11.689 6.589 10.9 10.9 0 0 0 .436 9.314c.748 1.407 2.408.743 4.16.042 1.373-.549 2.804-1.121 3.895-.735m-51.375 0c-1.182.418-2.061 1.691-2.897 2.901-1.13 1.637-2.183 3.159-3.796 2.301a10.903 10.903 0 0 1 8.263-20.068 10.91 10.91 0 0 1 7.707 9.348 10.9 10.9 0 0 1-1.221 6.211c-.749 1.407-2.409.743-4.161.043-1.374-.55-2.803-1.122-3.895-.736m43.427 46.751c8.143-6.415 11.134-16.889 11.134-23.341 0-5.1-3.431-3.495-8.924-.775l-.31.153c-5.042 2.497-11.754 5.822-19.122 5.822s-14.081-3.325-19.122-5.823c-5.671-2.809-9.228-4.571-9.228.624 0 6.656 3.182 17.585 11.916 23.934a18.97 18.97 0 0 1 11.575-9.786c.872-.26 1.77 1.241 2.689 2.778.887 1.482 1.794 2.998 2.716 2.998.983 0 1.948-1.494 2.891-2.952.985-1.525 1.946-3.01 2.875-2.713a18.97 18.97 0 0 1 10.91 9.081" clip-rule="evenodd"/><path fill="#FF323D" d="M144.097 149.317c-4.241 3.342-9.878 5.583-17.219 5.583-6.897 0-12.291-1.978-16.435-4.989a18.97 18.97 0 0 1 11.575-9.786c1.712-.511 3.527 5.776 5.405 5.776 2.01 0 3.947-6.246 5.766-5.665a18.97 18.97 0 0 1 10.908 9.081"/><path fill="#FFAD03" fill-rule="evenodd" d="M81.2 111.64a7.08 7.08 0 0 1-6.65.655 7.06 7.06 0 0 1-3.837-3.837 7.08 7.08 0 0 1 .657-6.65 7.087 7.087 0 1 1 9.83 9.832m101.413 0a7.08 7.08 0 0 1-6.651.655 7.06 7.06 0 0 1-3.837-3.837 7.1 7.1 0 0 1-.504-3.407 7.1 7.1 0 0 1 3.411-5.385 7.08 7.08 0 0 1 8.656 1.07 7.08 7.08 0 0 1 1.536 7.724 7.1 7.1 0 0 1-2.611 3.18" clip-rule="evenodd"/></svg>
  </g>

  <!-- "x" connector between logos -->
  <text x="380" y="48" text-anchor="middle" fill="#94a3b8" font-size="22" font-weight="300">x</text>

  <!-- Official OpenClaw Logo (scaled from viewBox 0 0 500 500) -->
  <g transform="translate(390,8) scale(0.12)">
    <svg version="1.2" xmlns="http://www.w3.org/2000/svg" viewBox="0 0 500 500" width="500" height="500">
      <style>
        .s0 { fill: #f6f4f4 }
        .s1 { fill: #0b0303 }
        .s2 { fill: #ef0011 }
        .s3 { fill: #f3e2e2 }
        .s4 { fill: #f00212 }
        .s5 { fill: #ba000d }
        .s6 { fill: #faf1f1 }
        .s7 { fill: #0b0100 }
        .s8 { fill: #fbedee }
        .s9 { fill: #faeaea }
        .s10 { fill: #ab797d }
        .s11 { fill: #f8eaea }
        .s12 { fill: #902021 }
        .s13 { fill: #f9eeee }
        .s14 { fill: #f6ecec }
        .s15 { fill: #080201 }
        .s16 { fill: #150100 }
        .s17 { fill: #f2e7e7 }
        .s18 { fill: #fbe7e8 }
        .s19 { fill: #060101 }
        .s20 { fill: #f5e7e7 }
        .s21 { fill: #fa999e }
        .s22 { fill: #c46064 }
        .s23 { fill: #180300 }
        .s24 { fill: #f6dcdd }
        .s25 { fill: #f2e6e6 }
        .s26 { fill: #110200 }
        .s27 { fill: #eb0011 }
        .s28 { fill: #e20010 }
        .s29 { fill: #ea0011 }
        .s30 { fill: #760007 }
        .s31 { fill: #f00514 }
        .s32 { fill: #fcebeb }
        .s33 { fill: #ecd6d6 }
        .s34 { fill: #f5e3e3 }
        .s35 { fill: #f5e4e4 }
        .s36 { fill: #faf6f6 }
        .s37 { fill: #e50010 }
        .s38 { fill: #d5000f }
        .s39 { fill: #f2e2e3 }
        .s40 { fill: #ef1018 }
        .s41 { fill: #f4e8e9 }
        .s42 { fill: #ef0513 }
        .s43 { fill: #f5e5e5 }
        .s44 { fill: #f00413 }
        .s45 { fill: #f4e9ea }
        .s46 { fill: #ed0011 }
        .s47 { fill: #e80011 }
        .s48 { fill: #e60613 }
        .s49 { fill: #f0d6d6 }
        .s50 { fill: #fca9ac }
        .s51 { fill: #9c000c }
        .s52 { fill: #73393b }
      </style>
      <g><path fill-rule="evenodd" class="s0" d="m166.5 52.5q3.5 0 7 0 2.75 2.99 1.5 7-21.27 45.61-20.5 96 39.99 2.76 72 26.5 7.87 6.86 13.5 15.5 42.88-56.39 103.5-92.5 47.35-25.46 101-25 14.52 0.38 23.5 11.5 3.19 7.74 2 16-1.81 7.18-4.5 14-1 0-1 1-5.04 6.05-9 13-1 0-1 1 0 0.5 0 1-12.42 12.15-28.5 19-6.02 36.27-41.5 45-0.83 2.75 0 5 19.02-12.85 41.5-9 10.85-8.09 23.5-13 15.01-6.37 31-2.5 14.09 7.43 14 23.5-2.83 23.25-15.5 43-6.42 9.92-14 19-10.04 8.8-19.5 18-72.02 48.88-156.5 27-19.63 9.6-41.5 10.5-4.59 1.27-9 3 2 1 4 2 20.09-1.11 35 12 25.46 6.95 37.5 30.5 1.26 5.69-1 11-3.38 3.79-7.5 6.5 5.74 10.07 1.5 20.5-7.55 7.47-17.5 3.5-11.01-5.34-22.5-9.5-18.26 10-38.5 13-15.5 0-31 0-26.62-4.54-51-17-4.17 1.33-8 3.5-7.23 5.87-15 11-8.62 2.58-13.5-4.5-1.82 2.32-4.5 3.5-6.06 2.24-12 3.5-7.5 0-15 0-27.42-2.56-50-18.5-18-17.25-23-41.5 0-11.5 0-23 4.12-22.7 25-33 6.95-16.67 22-26.5-20.39-20.8-14.5-49.5 7.01-26.98 28.5-44.5 7.56-5.27 15-10.5-13.09-30.88-7.5-64 3.16-15.57 14.5-26.5 6.85-2.48 8 4.5-6.59 39.53 11 75.5 7.99-0.49 16-2 2.42-34.57 14.5-67.5 8.51-22.23 27.5-36z"/></g>
      <g><path fill-rule="evenodd" class="s1" d="m113.5 401.5q0.48-5.1-1-10-0.91 0.19-1 1-2.46 1.74-5 3.5 5.65 9.54-5 13-32.21 5.55-61-10-32.89-23.11-29.5-63.5 2.96-22.67 23.5-32 7.99-19.75 27-29.5-27.65-23.7-15.5-58.5 7.33-16.82 20.5-29.5 10.79-8.14 22-15.5-16.49-37.08-5.5-76 3.19-6.13 7.5-11.5 1.48-0.89 2 1-5.69 41.09 12.5 78.5 1 1 2 2 9.97-3.24 20.5-4 2 0 4 0 0-7.5 0-15 0.99-42.22 24.5-77 6.12-7.12 14-12-4.65 13.43-10 27-11.93 37.6-9.5 77 49.38 0.7 83.5 36 2.75 4.5 5.5 9 38.99-52.24 93-88.5 45.84-29.03 100-32.5 15.69-1.56 29 6.5 5.68 7.29 3.5 16.5-10.38 33.62-43.5 45-4.39 37.33-41 45-0.79 8.63-6 15.5 1.91 1.83 4.5 2.5 22.27-17.25 50.5-14.5 12.93-9.41 28-15 36.22-8.28 31.5 28.5-15.19 51.69-62.5 77.5-65.92 35.87-138 15.5-19.67 10.42-42 10.5-8.39 2.88-17 5 3.58 6.08 10 9 20.92-1.14 36 13 22.67 5.23 34.5 25.5 3.33 7.13-3.5 11.5-3.88 1.8-8 3 7.36 8.45 6.5 19.5-4.43 5.66-11.5 3.5-12.84-5.67-26-10.5-39.4 21.02-83 10.5-18.85-5.78-36.5-14.5-13.65 4.14-23.5 14.5-9.51 3.74-11-6.5z"/></g>
      <g><path fill-rule="evenodd" class="s2" d="m153.5 173.5q24.62 1.46 46 13.5 12.11 8.1 17.5 21.5 0.74 2.45 0.5 5 0.09 0.81 1 1 1.48-4.9 1-10 5.04 10.48 1.5 22-9.81 27.86-35.5 42.5-26.17 14.97-56 19.5-2.77-0.4-2 1 2.86 1.27 6 1 25.64 1.53 48.5-10 0.34 10.08 2 20 1.08 5.76 5 10 1 1.5 0 3-31.11 20.84-68.5 17.5-23.7-5.7-32.5-28.5-4.39-9.18-3.5-19 15.41 6.23 32 4.5-20.68-6.39-39-18-34.81-27.22-12.5-65.5 11.84-14.83 29-23 4.21 7.66 11.5 12.5 3 1 6 0-26.04-34.62-29-78-0.13-8.46 2-16.5 1 6.5 2 13 3.43 39.53 24.5 73 2.03 2.28 4.5 4 0.5-1.25 1-2.5-1.27-6.54-5-12 0.5-0.75 1-1.5 9.72-3.43 20-4 0.55 10.34 8 17.5 1.94 0.74 4 0.5-17.8-64.6 16.5-122 0.98-1.79 1.5 0-28.21 56.64-13.5 118 1.08 1.43 2.5 0.5 2.21-4.98 2-10.5z"/></g>
      <g><path fill-rule="evenodd" class="s3" d="m454.5 97.5q-18.37-2.97-37-1.5-16.14 2.08-32 5.5 32.38-14.09 67-7.5 1.98 1.22 2 3.5z"/></g>
      <g><path fill-rule="evenodd" class="s4" d="m454.5 97.5q-1.33 11.18-8.5 20-21.81 26.28-55.5 32-1.11-0.2-2 0.5 2.31 2.82 5.5 4.5 1 2 0 4-9.56 11.3-19.5 20 19.71-8.72 31-27 2.68-0.43 5 1-14.24 30.97-48 36.5-9.93 1.71-20 1.5-6.8-0.48-13 1 5.81 6.92 14 11-10.78 16.03-27 26.5 27.16-7.4 38-33.5 4.34 1.35 9 1-9.08 23.84-33 33.5-18.45 6.41-38 7 22.59 8.92 45-1 12.05-5.52 24-11 9.01-1.79 17 2.5 5.28-4.38 11-8 12.8-6.07 27-5 0 0.5 0 1-19.34 2.69-34 15.5 0.5 0.25 1 0.5 17.79-8.09 36-15 2.71-0.79 5-2 2.5-1 5-2 5.53-4.04 11-8 11.7-4.18 24-6.5 7.78-1.36 15 1.5-2.97 18.45-13.5 34-34.92 49.37-94.5 62.5-59.27 12.45-108-23-15.53-12.52-21.5-31.5-2.47-14.26 4-27-3.15 24.41 14 42-4.92-10.28-7-22-1.97-17.63 7-33 47.28-69.5 125.5-100 15.86-3.42 32-5.5 18.63-1.47 37 1.5z"/></g>
      <g><path fill-rule="evenodd" class="s5" d="m86.5 112.5q-1-6.5-2-13 0.7-5.34 3.5-10-1.8 11.32-1.5 23z"/></g>
      <g><path fill-rule="evenodd" class="s6" d="m433.5 97.5q2.22-0.39 4 1-10 13.75-27 14-0.24-2.06 0.5-4 10.3-7.78 22.5-11z"/></g>
      <g><path fill-rule="evenodd" class="s7" d="m407.5 101.5q2.55-0.24 5 0.5-52.87 18.31-84.5 64.5-6.94 7.95-17 11-9.38-2.38-5-11 40.38-48.62 101.5-65z"/></g>
      <g><path fill-rule="evenodd" class="s8" d="m402.5 112.5q3 0 6 0-2.56 8.8-12 7-0.22-1.58 0.5-3 2.72-2.22 5.5-4z"/></g>
      <g><path fill-rule="evenodd" class="s9" d="m390.5 149.5q7.77 0.52 15 2-11.29 18.28-31 27 9.94-8.7 19.5-20 1-2 0-4-3.19-1.68-5.5-4.5 0.89-0.7 2-0.5z"/></g>
      <g><path fill-rule="evenodd" class="s10" d="m131.5 145.5q0 7.5 0 15-2 0-4 0 1.06-1.36 3-1-0.48-7.29 1-14z"/></g>
      <g><path fill-rule="evenodd" class="s11" d="m219.5 204.5q-1 4.5-2 9 0.24-2.55-0.5-5-5.39-13.4-17.5-21.5-21.38-12.04-46-13.5 0-2 0-4 36.7-0.86 61.5 26 3.06 4.11 4.5 9z"/></g>
      <g><path fill-rule="evenodd" class="s12" d="m329.5 191.5q6.2-1.48 13-1-3.5 1-7 2-2.9-0.97-6-1z"/></g>
      <g><path fill-rule="evenodd" class="s13" d="m329.5 191.5q3.1 0.03 6 1 9.55 1.31 19 3-10.84 26.1-38 33.5 16.22-10.47 27-26.5-8.19-4.08-14-11z"/></g>
      <g><path fill-rule="evenodd" class="s14" d="m479.5 199.5q-7.22-2.86-15-1.5-12.3 2.32-24 6.5 15.6-13.11 36-11.5 3.63 2.26 3 6.5z"/></g>
      <g><path fill-rule="evenodd" class="s15" d="m193.5 216.5q-12.01 1.52-22 8-2.83 1.29-5.5 3-4.79-4.57-6.5-11-5.04 2.2-9.5-1-3.47-6.4 3.5-3 4.4 0.05 8-2.5 9.22-9.73 21-16 6.3-3.24 12 1-2.9 1.22-6 1.5 2.61 5.74 4.5 12 0.75 3.97 0.5 8z"/></g>
      <g><path fill-rule="evenodd" class="s16" d="m458.5 200.5q3.04-0.24 6 0.5-18.02 7.05-33 19-1 1-2 0 11.53-14.3 29-19.5z"/></g>
      <g><path fill-rule="evenodd" class="s17" d="m178.5 202.5q6.85-0.63 4.5 6-7.6 5.09-6-4 1.08-0.82 1.5-2z"/></g>
      <g><path fill-rule="evenodd" class="s18" d="m469.5 201.5q-2.26 13.65-14.5 22-0.47-2.11 1-4 7.08-8.82 13.5-18z"/></g>
      <g><path fill-rule="evenodd" class="s19" d="m74.5 208.5q8.22-0.2 16 2.5 11.8 4.26 23.5 8.5 5.65-0.63 8-6 2.41 11.83-9.5 13 0.55 3.61 2 7-0.5 1-1 2-4.67-0.94-9.5-1-9.96 0.44-19.5 2.5-5.05-3.55-6.5-9.5-0.75-7.48-0.5-15-6.47 0.15-3-4z"/></g>
      <g><path fill-rule="evenodd" class="s20" d="m429.5 212.5q-2.5 1-5 2-4 0-8 0-14.2-1.07-27 5 15.27-12.44 35-9.5 2.72 1.14 5 2.5z"/></g>
      <g><path fill-rule="evenodd" class="s21" d="m219.5 204.5q0.48 5.1-1 10-0.91-0.19-1-1 1-4.5 2-9z"/></g>
      <g><path fill-rule="evenodd" class="s22" d="m416.5 215.5q0-0.5 0-1 4 0 8 0-2.29 1.21-5 2-1.06-1.36-3-1z"/></g>
      <g><path fill-rule="evenodd" class="s23" d="m416.5 215.5q1.94-0.36 3 1-18.21 6.91-36 15-0.5-0.25-1-0.5 14.66-12.81 34-15.5z"/></g>
      <g><path fill-rule="evenodd" class="s24" d="m193.5 216.5q4.39 1.3 9 3-0.79 1.04-2 1.5-14.77-0.13-29 3.5 9.99-6.48 22-8z"/></g>
      <g><path fill-rule="evenodd" class="s25" d="m98.5 219.5q6.09-0.98 6 5-3.04 0.24-6-0.5-1.84-2.24 0-4.5z"/></g>
      <g><path fill-rule="evenodd" class="s26" d="m176.5 229.5q8.85-1.14 16 4-4.98 1.75-10 0-13.56 14.3-33 19.5-28.06 8.2-55 1 3.32-6.4 10-5.5-0.71 1.47-2 2.5 36.58 4.24 69-14 4.68-2.13 1-5 2.35-0.91 4-2.5z"/></g>
      <g><path fill-rule="evenodd" class="s27" d="m231.5 238.5q1.31-0.2 2 1-3.13 28.62 15 51-16.25 6.75-27-7.5-1-1-2 0 14.73 29.34 46 18.5 1.79 0.52 0 1.5-37.63 16.82-50.5-22.5-5.1-26.48 16.5-42z"/></g>
      <g><path fill-rule="evenodd" class="s28" d="m243.5 259.5q5.88 3.62 10.5 9 12.96 18.46 32.5 29.5-31.51-7.75-43-38.5z"/></g>
      <g><path fill-rule="evenodd" class="s29" d="m203.5 266.5q1.31-0.2 2 1-2.48 22.08 12 39-6.99 1.35-14 0.5 4.59 4.08 10 7-8.71 0.28-14.5-6.5-16.98-22.76 4.5-41z"/></g>
      <g><path fill-rule="evenodd" class="s27" d="m58.5 284.5q9.6-2.17 14.5 6 5.15 14.18-1 28-11.05-13.14-27.5-17.5 5.15-9.9 14-16.5z"/></g>
      <g><path fill-rule="evenodd" class="s30" d="m129.5 288.5q2 1 4 2-3.14 0.27-6-1-0.77-1.4 2-1z"/></g>
      <g><path fill-rule="evenodd" class="s31" d="m56.5 313.5q3.43 5.43 8 10-4.88 0.44-8 4-1.11-0.2-2 0.5 28.91 1.65 38 28.5 0.45 3.16-1 6-11.02-7.01-23-12.5-4.75-3.75-9.5-7.5 1.47 7.42 7 13 8.34 27.18 32 43 0.99 2.41-1.5 3.5-40.25 5.58-66.5-25.5-15.67-22.01-8-48 10.46-23.87 34.5-15z"/></g>
      <g><path fill-rule="evenodd" class="s32" d="m45.5 317.5q4.03-0.25 8 0.5 2.46 4.16-2 6-6.04 2.01-9-3.5 1.26-1.85 3-3z"/></g>
      <g><path fill-rule="evenodd" class="s33" d="m56.5 313.5q4.91 3.14 9.5 7 0.88 2.25-1.5 3-4.57-4.57-8-10z"/></g>
      <g><path fill-rule="evenodd" class="s34" d="m198.5 319.5q-11.1 11.56-27 15.5-15.75 4.88-32 2.5 28.81-3.69 54-18.5 2.65-0.96 5 0.5z"/></g>
      <g><path fill-rule="evenodd" class="s4" d="m198.5 319.5q1.44 0.68 2.5 2 2.41 8.23 6 16 1.2 2.64-0.5 5-30.65 21.41-68 18.5-25.16-6.17-32.5-30.5 6.96 4.99 15.5 6.5 8.99 0.75 18 0.5 16.25 2.38 32-2.5 15.9-3.94 27-15.5z"/></g>
      <g><path fill-rule="evenodd" class="s35" d="m92.5 356.5q-9.09-26.85-38-28.5 0.89-0.7 2-0.5 25.47-4.89 35.5 19 0.75 4.98 0.5 10z"/></g>
      <g><path fill-rule="evenodd" class="s36" d="m72.5 335.5q3.62-0.38 5 3-4.22 1.83-5-3z"/></g>
      <g><path fill-rule="evenodd" class="s37" d="m223.5 336.5q5.59-0.48 11 1-4.04 4.16-8.5 8-5.99-3.8-2.5-9z"/></g>
      <g><path fill-rule="evenodd" class="s38" d="m90.5 334.5q0.59-1.54 2-0.5 3.94 5.45 9 10 7 6 14 12-6.91-1.7-13-6-6.21-7.72-12-15.5z"/></g>
      <g><path fill-rule="evenodd" class="s39" d="m261.5 346.5q-3.54-2.44-8-3.5-6.98-0.75-14-0.5 0.63-1.08 2-1.5 13.82-2.52 26 4-2.63 1.98-6 1.5z"/></g>
      <g><path fill-rule="evenodd" class="s40" d="m239.5 342.5q7.02-0.25 14 0.5 4.46 1.06 8 3.5-5.2 2.35-10 5.5-3.88 4.65-9 7.5-9.89-3.09-9.5-13 2.36-3.63 6.5-4z"/></g>
      <g><path fill-rule="evenodd" class="s41" d="m214.5 349.5q-21.43 15.48-48 16 22.82-5.9 43-18.5 3.64-1.12 5 2.5z"/></g>
      <g><path fill-rule="evenodd" class="s42" d="m214.5 349.5q5.96 7.2 13.5 13 1 1 0 2-28.58 23.34-65.5 20.5-18.15-4.24-27.5-19.5 1.13 0.94 2.5 1.5 14.7 1.42 29-1.5 26.57-0.52 48-16z"/></g>
      <g><path fill-rule="evenodd" class="s43" d="m302.5 373.5q-14.74-16.73-37-19-4.55 0.25-9 1 25.3-10.24 43.5 11 2.85 2.91 2.5 7z"/></g>
      <g><path fill-rule="evenodd" class="s44" d="m302.5 373.5q0.21 2.44-2 3.5-28.69 7.6-50.5-12.5-0.06-6.71 6.5-9 4.45-0.75 9-1 22.26 2.27 37 19z"/></g>
      <g><path fill-rule="evenodd" class="s45" d="m100.5 356.5q5.42 2.71 11 5.5-13.04 7.54-18.5 21.5-7.57-7.14-10.5-17 5.58 1.54 10 5.5 4.2 0.84 5.5-3.5 1.41-5.99 2.5-12z"/></g>
      <g><path fill-rule="evenodd" class="s8" d="m83.5 394.5q-18.9-10.15-29.5-29-1.54-3.52-2-7 5.79 2.39 10 7 7.82 16.63 21.5 29z"/></g>
      <g><path fill-rule="evenodd" class="s46" d="m232.5 365.5q17.6 6.19 10.5 23-10.6 10.42-25.5 11.5-25.94 3.21-49-9 36.75-1.65 64-25.5z"/></g>
      <g><path fill-rule="evenodd" class="s47" d="m113.5 367.5q7.7-0.01 9.5 7-9.69 7.19-18.5 15.5-7.23 5.76-5.5-3.5 3.12-12.84 14.5-19z"/></g>
      <g><path fill-rule="evenodd" class="s29" d="m126.5 380.5q7.88-0.4 12 6.5-8.5 7.25-17 14.5-5.62-12.55 5-21z"/></g>
      <g><path fill-rule="evenodd" class="s48" d="m283.5 385.5q3.22 2.95 7 5.5 2.8 4.03 6 7.5 0.42 2.77-2 4-15.5-9.75-31-19.5-1.79-0.98 0-1.5 9.96 2.49 20 4z"/></g>
      <g><path fill-rule="evenodd" class="s49" d="m283.5 385.5q8.71-1.27 11.5 7 1.22 2.9 1.5 6-3.2-3.47-6-7.5-3.78-2.55-7-5.5z"/></g>
      <g><path fill-rule="evenodd" class="s50" d="m83.5 394.5q1.88-0.06 3 1.5-2.25 0.88-3-1.5z"/></g>
      <g><path fill-rule="evenodd" class="s51" d="m258.5 392.5q3.51 0.41 0 2.5-2.33 1.93-5 2 2.61-2.28 5-4.5z"/></g>
      <g><path fill-rule="evenodd" class="s52" d="m111.5 392.5q0.09-0.81 1-1 1.48 4.9 1 10-1-4.5-2-9z"/></g>
    </svg>
  </g>

  <!-- Title text -->
  <text x="470" y="50" fill="url(#titleGrad)" font-size="28" font-weight="700" letter-spacing="0.5">HuggingClaw</text>

  <!-- ═══════════════════════════════════════════════════════ -->
  <!-- CHANNELS (top row) — all messaging platforms           -->
  <!-- ═══════════════════════════════════════════════════════ -->

  <text x="430" y="96" text-anchor="middle" fill="#64748b" font-size="11" font-weight="600" letter-spacing="2">CHANNELS</text>

  <!-- Channel boxes -->
  <rect x="30" y="108" width="100" height="46" rx="8" fill="#1e293b" stroke="#334155" stroke-width="1"/>
  <text x="80" y="128" text-anchor="middle" fill="#e2e8f0" font-size="11" font-weight="600">Web UI</text>
  <text x="80" y="144" text-anchor="middle" fill="#64748b" font-size="9">Control Panel</text>

  <rect x="140" y="108" width="100" height="46" rx="8" fill="#1e293b" stroke="#334155" stroke-width="1"/>
  <text x="190" y="128" text-anchor="middle" fill="#e2e8f0" font-size="11" font-weight="600">Telegram</text>
  <text x="190" y="144" text-anchor="middle" fill="#64748b" font-size="9">Bot</text>

  <rect x="250" y="108" width="100" height="46" rx="8" fill="#1e293b" stroke="#334155" stroke-width="1"/>
  <text x="300" y="128" text-anchor="middle" fill="#e2e8f0" font-size="11" font-weight="600">WhatsApp</text>
  <text x="300" y="144" text-anchor="middle" fill="#64748b" font-size="9">Messaging</text>

  <rect x="360" y="108" width="100" height="46" rx="8" fill="#1e293b" stroke="#334155" stroke-width="1"/>
  <text x="410" y="128" text-anchor="middle" fill="#e2e8f0" font-size="11" font-weight="600">Discord</text>
  <text x="410" y="144" text-anchor="middle" fill="#64748b" font-size="9">Server Bot</text>

  <rect x="470" y="108" width="100" height="46" rx="8" fill="#1e293b" stroke="#334155" stroke-width="1"/>
  <text x="520" y="128" text-anchor="middle" fill="#e2e8f0" font-size="11" font-weight="600">Slack</text>
  <text x="520" y="144" text-anchor="middle" fill="#64748b" font-size="9">Workspace</text>

  <rect x="580" y="108" width="100" height="46" rx="8" fill="#1e293b" stroke="#334155" stroke-width="1"/>
  <text x="630" y="128" text-anchor="middle" fill="#e2e8f0" font-size="11" font-weight="600">Signal</text>
  <text x="630" y="144" text-anchor="middle" fill="#64748b" font-size="9">Private Chat</text>

  <rect x="690" y="108" width="140" height="46" rx="8" fill="#1e293b" stroke="#334155" stroke-width="1"/>
  <text x="760" y="128" text-anchor="middle" fill="#e2e8f0" font-size="11" font-weight="600">LINE · iMessage</text>
  <text x="760" y="144" text-anchor="middle" fill="#64748b" font-size="9">Matrix · IRC · 40+</text>

  <!-- Arrows from channels down to HF Space -->
  <line x1="80" y1="154" x2="80" y2="186" stroke="#64748b" stroke-width="1" opacity="0.4"/>
  <line x1="190" y1="154" x2="190" y2="186" stroke="#64748b" stroke-width="1" opacity="0.4"/>
  <line x1="300" y1="154" x2="300" y2="186" stroke="#64748b" stroke-width="1" opacity="0.4"/>
  <line x1="410" y1="154" x2="410" y2="186" stroke="#64748b" stroke-width="1" opacity="0.4"/>
  <line x1="520" y1="154" x2="520" y2="186" stroke="#64748b" stroke-width="1" opacity="0.4"/>
  <line x1="630" y1="154" x2="630" y2="186" stroke="#64748b" stroke-width="1" opacity="0.4"/>
  <line x1="760" y1="154" x2="760" y2="186" stroke="#64748b" stroke-width="1" opacity="0.4"/>
  <!-- Horizontal connector line -->
  <line x1="80" y1="186" x2="760" y2="186" stroke="#64748b" stroke-width="1" opacity="0.4"/>
  <!-- Single arrow down from center -->
  <line x1="430" y1="186" x2="430" y2="210" stroke="#a78bfa" stroke-width="2.5" marker-end="url(#arrowPurple)" filter="url(#glow)"/>

  <!-- ═══════════════════════════════════════════════════════ -->
  <!-- HUGGINGFACE SPACES (center) — the main deployment      -->
  <!-- ═══════════════════════════════════════════════════════ -->

  <rect x="110" y="215" width="640" height="155" rx="14" fill="none" stroke="#fbbf24" stroke-width="1.8" stroke-dasharray="8,5" opacity="0.5"/>
  <!-- HF icon in corner -->
  <circle cx="140" cy="232" r="10" fill="#fbbf24" opacity="0.15"/>
  <text x="140" y="236" text-anchor="middle" fill="#fbbf24" font-size="11" font-weight="700">HF</text>
  <text x="165" y="236" fill="#fbbf24" font-size="12" font-weight="600" letter-spacing="1" opacity="0.9">HUGGINGFACE SPACE</text>

  <!-- OpenClaw Engine (large center box) -->
  <rect x="140" y="250" width="580" height="100" rx="10" fill="#1a1040" stroke="#7c3aed" stroke-width="1.5" opacity="0.95"/>

  <!-- Engine title row -->
  <text x="430" y="275" text-anchor="middle" fill="#c4b5fd" font-size="16" font-weight="700">OpenClaw Engine</text>
  <text x="430" y="292" text-anchor="middle" fill="#7c3aed" font-size="10" opacity="0.7">AI Assistant Platform · Node.js</text>

  <!-- Feature pills inside engine -->
  <rect x="160" y="305" width="108" height="30" rx="15" fill="url(#purpleGrad)" opacity="0.6"/>
  <text x="214" y="324" text-anchor="middle" fill="#e2e8f0" font-size="10" font-weight="600">Agent Workflows</text>

  <rect x="280" y="305" width="108" height="30" rx="15" fill="url(#purpleGrad)" opacity="0.6"/>
  <text x="334" y="324" text-anchor="middle" fill="#e2e8f0" font-size="10" font-weight="600">Conversations</text>

  <rect x="400" y="305" width="108" height="30" rx="15" fill="url(#purpleGrad)" opacity="0.6"/>
  <text x="454" y="324" text-anchor="middle" fill="#e2e8f0" font-size="10" font-weight="600">Plugin System</text>

  <rect x="520" y="305" width="108" height="30" rx="15" fill="url(#purpleGrad)" opacity="0.6"/>
  <text x="574" y="324" text-anchor="middle" fill="#e2e8f0" font-size="10" font-weight="600">Memory</text>

  <rect x="640" y="305" width="66" height="30" rx="15" fill="url(#purpleGrad)" opacity="0.4"/>
  <text x="673" y="324" text-anchor="middle" fill="#c4b5fd" font-size="10">+ more</text>

  <!-- ═══════════════════════════════════════════════════════ -->
  <!-- BACKEND SERVICES (bottom row)                           -->
  <!-- ═══════════════════════════════════════════════════════ -->

  <!-- Arrows down from Engine -->
  <line x1="300" y1="355" x2="300" y2="390" stroke="#4ade80" stroke-width="2" marker-end="url(#arrowGreen)" filter="url(#glow)"/>
  <line x1="560" y1="355" x2="560" y2="390" stroke="#fb923c" stroke-width="2" marker-end="url(#arrowOrange)" filter="url(#glow)"/>

  <!-- HF Dataset -->
  <rect x="175" y="395" width="250" height="75" rx="12" fill="#1c1208" stroke="#f59e0b" stroke-width="1.5"/>
  <text x="220" y="422" fill="#fbbf24" font-size="14" font-weight="700">HF Dataset</text>
  <text x="220" y="440" fill="#a3842c" font-size="10">Private Repo</text>
  <!-- Sync icon -->
  <rect x="325" y="408" width="80" height="26" rx="13" fill="#052e16" stroke="#22c55e" stroke-width="1" opacity="0.9"/>
  <text x="365" y="425" text-anchor="middle" fill="#4ade80" font-size="10" font-weight="600">Auto-Sync</text>
  <text x="300" y="458" text-anchor="middle" fill="#78350f" font-size="9">Conversations · Settings · Credentials</text>

  <!-- LLM Provider -->
  <rect x="435" y="395" width="250" height="75" rx="12" fill="#1c0f08" stroke="#fb923c" stroke-width="1.5"/>
  <text x="480" y="422" fill="#fdba74" font-size="14" font-weight="700">LLM Provider</text>
  <text x="480" y="440" fill="#c2723c" font-size="10">OpenRouter</text>
  <!-- Model count badge -->
  <rect x="582" y="408" width="84" height="26" rx="13" fill="#7c2d12" opacity="0.6"/>
  <text x="624" y="425" text-anchor="middle" fill="#fb923c" font-size="10" font-weight="600">200+ Models</text>
  <text x="560" y="458" text-anchor="middle" fill="#7c2d12" font-size="9">DeepSeek · Step · GPT · Claude · Gemini</text>

  <!-- ═══════════════════════════════════════════════════════ -->
  <!-- FOOTER                                                  -->
  <!-- ═══════════════════════════════════════════════════════ -->

  <text x="430" y="500" text-anchor="middle" fill="#475569" font-size="10" letter-spacing="1.5">
    ZERO HARDWARE  ·  ALWAYS ONLINE  ·  AUTO-PERSISTENT  ·  HTTPS BUILT-IN  ·  ONE-CLICK DEPLOY
  </text>
</svg>
